<?xml version="1.0" encoding="utf-8"?>
<!-- Generator: Adobe Illustrator 23.0.5, SVG Export Plug-In . SVG Version: 6.00 Build 0)  -->
<svg version="1.1" id="Layer_1" xmlns="http://www.w3.org/2000/svg" xmlns:xlink="http://www.w3.org/1999/xlink" x="0px" y="0px"
	 viewBox="0 0 1357.22 1071.15" style="enable-background:new 0 0 1357.22 1071.15;" xml:space="preserve">
<style type="text/css">
	.st0{fill:#3D3C3C;}
	.st1{fill:#FEE3AE;}
	.st2{fill:#DEC38E;}
	.st3{fill:#FEAE4F;}
	.st4{fill:#E19034;}
	.st5{fill:#C17720;}
	.st6{fill:#2F2F31;}
	.st7{fill:#FFFFFF;}
	.st8{fill:#201600;}
	.st9{fill:#2E2E30;}
	.st10{fill:#CC8989;}
</style>
<path class="st0" d="M511.78,670.4c-2.78,52.51,5.99,144.61,8.48,183.15s5.97,212.87,5.97,212.87l36.11-41.81l35.37,46.55
	c0,0,3.11-79.83,4.74-149.19c1.63-69.36,8.61-201.47,8.61-201.47L511.78,670.4z"/>
<path class="st0" d="M397.32,613.18c-2.78,52.51-2.49,228.44,0,266.97s6.94,133.68,6.94,133.68l37.26-30.57l32.83,30.57
	c0,0,2.81-73.7,4.44-143.06s8.9-207.6,8.9-207.6L397.32,613.18z"/>
<path class="st0" d="M1126.06,660.15c-2.78,52.51-3.4,231.21-0.9,269.74c2.49,38.53,0.9,131.02,0.9,131.02l44.07-38.75l41.86,38.75
	c0,0-6.7-57.8-5.06-127.16s-12.86-367.63-12.86-367.63L1126.06,660.15z"/>
<path class="st0" d="M998.42,613.18c-2.78,52.51-12.3,231.1-9.81,269.64c2.49,38.53,0.9,131.02,0.9,131.02l44.02-39.02l41.91,39.02
	c0,0-6.7-57.8-5.06-127.16s-20.25-244.88-20.25-244.88L998.42,613.18z"/>
<path class="st1" d="M1314.64,516.93c2.88,17.77,3.27,39.46-7.16,53.75c-29.79,40.78-81.45,34.28-81.45,34.28
	s12.71,42.07-5.55,70.36c-17.82,27.61-93.47,30.06-93.47,30.06s-4.1,63.34-32.13,67.28c-18.79,2.64-60.69-23.88-64.95-23.53
	c-0.48,1.2-4.06,7.16-20.86,31.87c-25.52,37.47-77.97,10.82-77.97,10.82s-21.23,21.25-42.02,33.99
	c-20.77,12.75-54.05-3.05-54.05-3.05s0.64-1.73-37.86,9.28c-38.07,10.88-49.2-32.37-49.46-33.33c-0.31,1.04-13.39,43.92-48.3,22.7
	c-35.34-21.49-38.49-51.33-38.49-51.33s-22.5,15.95-58.36,10.18c-35.85-5.76-27.97-44.11-27.97-44.11s-40.46,12.16-65.89,2.91
	c-25.43-9.24-32.85-46.4-32.85-46.4s-23.55,30.75-45.21,12.18c-21.68-18.57-0.6-35.92-0.6-35.92s-82.94-9.71-90.32-25.49
	c-33.93-72.56-6.91-116.96-6.91-116.96c0-0.02,12.1-45.1,25.68-95.75c17.44-64.96,37.34-139.08,37.34-139.08s21.15-47,43.94-58.34
	c22.8-11.34,49.44-2.95,49.44-2.95s30.38-43.25,50.68-55.24c20.28-11.99,45.21,2.99,45.21,2.99s13.23-25.29,20.52-31.79
	c7.27-6.49,49.3-0.18,49.3-0.18s-1.78-37.68,34.6-53.61c36.39-15.95,65.81,16.07,65.81,16.07s40.55-26.45,62.02-34.01
	c21.46-7.55,20.35,13.75,20.35,13.75s38.55-25.8,65.03-23.04c26.47,2.75,31.29,30.89,31.29,30.89s46.04-20.43,63.13-14.76
	c16.89,5.61,9.52,35.54,9.35,36.25c0.6-0.51,23.33-20.05,56.18-12.99c1.72,0.38,3.48,0.83,5.26,1.35
	c36.11,10.65,26.03,60.74,26.03,60.74s31.81-14.15,54.6-10.55c22.8,3.6,39.6,48.49,39.6,48.49s12.86-11.54,43.75,3.08
	c30.89,14.63,23.77,53.04,23.77,53.04s15.44-12.42,43.87,6.82c13.61,9.2-0.25,70.02-0.25,70.02s55.99,37.17,57.85,59.38
	c2.03,24.26-50.24,89.57-50.24,89.57S1311.91,500,1314.64,516.93z"/>
<path class="st2" d="M1307.48,570.68c-29.79,40.78-81.45,34.28-81.45,34.28s12.71,42.07-5.55,70.36
	c-17.82,27.61-93.47,30.06-93.47,30.06s-4.1,63.34-32.13,67.28c-18.79,2.64-60.69-23.88-64.95-23.53
	c-0.48,1.2-4.06,7.16-20.86,31.87c-25.52,37.47-77.97,10.82-77.97,10.82s-21.23,21.25-42.02,33.99
	c-20.77,12.75-54.05-3.05-54.05-3.05s0.64-1.73-37.86,9.28c-38.07,10.88-49.2-32.37-49.46-33.33c-0.31,1.04-13.39,43.92-48.3,22.7
	c-35.34-21.49-38.49-51.33-38.49-51.33s-22.5,15.95-58.36,10.18c-35.85-5.76-27.97-44.11-27.97-44.11s-40.46,12.16-65.89,2.91
	c-25.43-9.24-32.85-46.4-32.85-46.4s-23.55,30.75-45.21,12.18c-21.68-18.57-0.6-35.92-0.6-35.92s-82.94-9.71-90.32-25.49
	c-33.93-72.56-6.91-116.96-6.91-116.96c0-0.02,12.1-45.1,25.68-95.75l134-92.29l189.33,60.89c0,0,21.29,16.9-16.78,28.4
	c-38.07,11.49-137.42-49.68-137.42-49.68c-8.98,61.17-122.07,154.93-107.35,204.98c14.73,50.05,60.07,58.77,60.07,58.77
	s-1.72,16.52,22.09,28.61c23.8,12.09,57.76,13.99,57.76,13.99s37.41,51.32,62.55,51.32c25.13,0,61.1-7.6,61.1-7.6
	s46.63,38.02,69.01,32.31c22.36-5.7,69.59-24.71,69.59-24.71s31.26,15.21,63.29,15.21c32.03,0,50.43-26.61,50.43-26.61
	s25.62,22.81,47.33,11.4c21.7-11.4,41.86-32.31,41.86-32.31s38.75,22.81,53.96,5.7c15.21-17.1,24.71-38.7,24.71-38.7
	s55.33,14.52,63.78,0c8.45-14.52,12.25-49.47,12.25-49.47s23.99-8.98,31.96-28.82c7.79-19.43,0.32-29.97,0.01-30.41
	c0.91,0.27,38.67,11.55,64.96-11.61c12.62-11.13,26.54-23.37,37.67-33.16C1317.53,534.7,1317.92,556.39,1307.48,570.68z"/>
<g>
	<path class="st3" d="M437.54,234.64c0,0,44.63-189.12,189.91-159.72s189.56,110.83,139.83,210.61
		c-22.58,45.31-41.77,77.29-149.52,67.16c-66.79-6.28-130.31-36.3-161.13-68.73C437.73,264.06,437.54,234.64,437.54,234.64z"/>
	<path class="st4" d="M451.13,194.53c0,0,16.19,30.6,29.68,43.27s27.82,22.9,25.4,14.42c-0.84-2.96-12.68-7.91-30.77-37.65
		c-18.09-29.74-18.44-33.33-18.44-33.33L451.13,194.53z"/>
	<path class="st4" d="M484.59,135.55c0,0,9.49,27.16,17.78,38.47s16.21,21.94,17.78,16.14c1.22-4.49-7.16-11.96-20.24-36.32
		c-12.48-23.23-9.1-27.38-9.1-27.38L484.59,135.55z"/>
	<path class="st4" d="M691.68,346.92c0,0-3.9-21.44-8.64-30.75c-4.75-9.31-9.31-18.07-11.07-13.81c-1.36,3.3,3.87,9.7,10.65,29.33
		c6.47,18.72,3.59,21.57,3.59,21.57L691.68,346.92z"/>
	<path class="st4" d="M600.75,334.94c0,0,8.89-19.9,10.23-30.26c1.34-10.36,2.52-20.17-1.33-17.65c-2.99,1.95-2.29,10.19-7.77,30.23
		c-5.23,19.11-9.22,19.83-9.22,19.83L600.75,334.94z"/>
	<path class="st4" d="M530.61,283.92c0,0,15.98,0.39,23.72-1.82s15.05-4.36,12.54-6.4c-1.94-1.59-7.79,1.46-23.26,3.61
		c-14.76,2.05-15.99-0.65-15.99-0.65L530.61,283.92z"/>
	<path class="st4" d="M531.87,232.68c0,0,14.98,5.59,23.01,6.04s15.65,0.8,13.95-1.95c-1.32-2.13-7.84-1.17-23.16-4.19
		c-14.62-2.89-14.9-5.84-14.9-5.84L531.87,232.68z"/>
	<path class="st4" d="M558.05,164.21c0,0,11.26,11.35,18.37,15.12s13.87,7.28,13.48,4.07c-0.3-2.49-6.63-4.34-19.28-13.51
		c-12.07-8.75-11.09-11.54-11.09-11.54L558.05,164.21z"/>
	<path class="st4" d="M627.26,141.17c0,0-4.6,15.31-4.52,23.36s0.22,15.67,2.86,13.79c2.04-1.45,0.65-7.89,2.67-23.39
		c1.93-14.78,4.85-15.25,4.85-15.25L627.26,141.17z"/>
	<path class="st4" d="M693.39,165.04c0,0-14.07,7.6-19.69,13.36s-10.9,11.25-7.71,11.79c2.47,0.41,6.03-5.13,18.4-14.68
		c11.8-9.11,14.2-7.38,14.2-7.38L693.39,165.04z"/>
	<path class="st4" d="M721.36,214.64c0,0-15.53-3.8-23.56-3.3c-8.03,0.5-15.63,1.03-13.62,3.57c1.56,1.97,7.92,0.24,23.5,1.45
		c14.86,1.16,15.48,4.05,15.48,4.05L721.36,214.64z"/>
	<path class="st4" d="M704.8,260.47c0,0-11.96-10.61-19.3-13.91c-7.34-3.31-14.31-6.38-13.71-3.2c0.46,2.46,6.89,3.91,20.1,12.25
		c12.6,7.96,11.8,10.81,11.8,10.81L704.8,260.47z"/>
	<path class="st4" d="M646.19,287.05c0,0,0.5-15.98-1.65-23.73c-2.15-7.76-4.25-15.08-6.32-12.59c-1.6,1.93,1.4,7.8,3.44,23.29
		c1.94,14.78-0.76,15.99-0.76,15.99L646.19,287.05z"/>
	<path class="st4" d="M587.35,248.9c0,0,13.68-2.34,19.64-5.3c5.96-2.96,11.58-5.81,8.88-6.96c-2.09-0.89-6.21,2.4-18.76,6.59
		c-11.97,4-13.76,2.14-13.76,2.14L587.35,248.9z"/>
	<path class="st4" d="M543.9,83.68c0,0,2.97,22.55,7.97,32.48c5.01,9.93,11.14,22.73,14.56,18.05c1.41-1.93-7-10.54-11.1-31.09
		s-3.57-22.66-3.57-22.66L543.9,83.68z"/>
	<path class="st4" d="M620.28,73.63c0,0-4.07,20.14-3.45,29.17c0.62,9.03,1.18,20.59,5.19,17.72c1.66-1.19-1.91-9.98,1.47-27.16
		s4.45-18.71,4.45-18.71L620.28,73.63z"/>
	<path class="st4" d="M697.8,96.18c0,0-9.03,18.46-10.71,27.35c-1.69,8.89-4.06,20.22,0.54,18.45c1.9-0.73,0.67-10.14,8.29-25.91
		c7.62-15.77,9.03-16.98,9.03-16.98L697.8,96.18z"/>
	<path class="st4" d="M764.5,144.76c0,0-17.6,10.6-23.84,17.15c-6.24,6.55-14.39,14.77-9.56,15.79c1.99,0.42,6.07-8.15,21.03-17.25
		c14.96-9.1,16.8-9.35,16.8-9.35L764.5,144.76z"/>
	<path class="st4" d="M786.79,208.18c0,0-20.23-3.58-29.24-2.74c-9.01,0.83-20.55,1.68-17.58,5.61c1.23,1.63,9.93-2.15,27.19,0.81
		s18.81,3.99,18.81,3.99L786.79,208.18z"/>
	<path class="st4" d="M774.98,266.15c0,0-18.88-8.12-27.84-9.37c-8.96-1.25-20.39-3.08-18.4,1.43c0.82,1.86,10.16,0.18,26.28,7.03
		c16.12,6.84,17.4,8.2,17.4,8.2L774.98,266.15z"/>
	<path class="st4" d="M743.84,322.52c0,0-14.72-14.34-22.64-18.71c-7.92-4.38-17.94-10.17-17.7-5.24c0.1,2.03,9.42,3.81,22.03,15.96
		c12.6,12.16,13.31,13.88,13.31,13.88L743.84,322.52z"/>
	<g>
		<path class="st5" d="M516.46,303.2l-5.58-0.24c0.18-4.01,4.72-98.73,41.54-140.8c21.5-24.56,83.28-34.12,113.98-17.62
			c39.02,20.96,60.07,52.83,60.07,72.17c0,20.28-20.38,60.33-45.49,71.38c-25.58,11.25-61.51,1.85-79.02-14
			c-21.63-19.57-25.93-40.92-12.79-63.45c8.26-14.16,23.37-19.18,34.99-19.18c0.2,0,0.4,0,0.61,0c11.1,0.17,20.37,4.63,24.18,11.65
			c2.98,5.48,3.45,10.67,1.4,15.42c-4.39,10.2-18.99,14.21-19.61,14.37l-1.44-5.4l0.72,2.7l-0.72-2.7
			c0.13-0.03,12.62-3.48,15.93-11.19c1.35-3.14,0.96-6.59-1.19-10.54c-2.81-5.17-10.41-8.6-19.36-8.73
			c-10.08-0.17-23.49,4.08-30.68,16.41c-11.79,20.22-7.96,38.7,11.71,56.5c16.22,14.67,49.43,23.41,73.02,13.03
			c22.86-10.06,42.15-47.86,42.15-66.27c0-17.97-21.37-48.03-57.13-67.25c-28.31-15.21-87.38-6.18-107.13,16.38
			C521.08,206.44,516.5,302.24,516.46,303.2z"/>
	</g>
</g>
<g>
	<path class="st3" d="M426.62,244.04c0,0,60.24-165.3-53.94-219.39s-183.85-16.21-197.6,84.74c-6.25,45.83-8.42,79.89,70.65,128.76
		S426.62,244.04,426.62,244.04z"/>
	<path class="st4" d="M436.56,206.82c0,0-25.87,14.47-41.25,16.91c-15.38,2.44-30.17,2.6-24.43-2.49c2-1.78,12.54,0.71,39.3-12.12
		c26.77-12.83,28.73-15.34,28.73-15.34L436.56,206.82z"/>
	<path class="st4" d="M441.89,145.03c0,0-19.6,15.41-30.75,19.55c-11.15,4.14-21.72,7.96-20.01,2.79c1.32-4,10.69-5.22,31.41-16.64
		c19.77-10.89,19.44-15.77,19.44-15.77L441.89,145.03z"/>
	<path class="st4" d="M197.6,195.08c0,0,13-14.05,20.74-18.54c7.75-4.5,15.1-8.68,14.27-4.56c-0.65,3.19-7.33,5.25-21.45,16.43
		c-13.47,10.66-12.85,14.3-12.85,14.3L197.6,195.08z"/>
	<path class="st4" d="M265.99,233.75c0,0,3.45-19.59,7.51-28.07c4.06-8.48,7.96-16.46,9.41-12.54c1.12,3.03-3.33,8.85-9.19,26.75
		c-5.59,17.08-3.19,19.71-3.19,19.71L265.99,233.75z"/>
	<path class="st4" d="M338.83,232.24c0,0-11.19-8.09-15.46-13.8c-4.27-5.71-8.27-11.16-5.56-11.38c2.1-0.17,4.66,5.18,14.28,14.9
		c9.18,9.28,11.32,7.9,11.32,7.9L338.83,232.24z"/>
	<path class="st4" d="M362.61,193.13c0,0-13-3.65-18.75-7.53c-5.75-3.88-11.16-7.6-8.66-8.78c1.93-0.91,5.96,3.23,17.97,8.99
		c11.46,5.5,13.07,3.43,13.07,3.43L362.61,193.13z"/>
	<path class="st4" d="M377.52,128.02c0,0-13.21,2.62-19.92,1.72c-6.71-0.9-13.06-1.81-11.24-4.01c1.41-1.71,6.65,0.22,19.77-0.03
		c12.52-0.24,13.19-2.85,13.19-2.85L377.52,128.02z"/>
	<path class="st4" d="M340.94,74.46c0,0-4.19,13.9-8.12,19.9c-3.93,6-7.69,11.64-8.6,8.85c-0.71-2.16,3.35-6.27,9.41-18.95
		c5.78-12.1,3.99-13.99,3.99-13.99L340.94,74.46z"/>
	<path class="st4" d="M283.92,57.7c0,0,6.03,13.07,7.13,20.34c1.1,7.27,2.09,14.16-0.36,12.88c-1.9-0.99-1.69-7.01-5.61-20.66
		c-3.74-13.02-6.23-12.98-6.23-12.98L283.92,57.7z"/>
	<path class="st4" d="M240.8,80.26c0,0,12.52,5.29,17.81,9.87c5.29,4.59,10.27,8.97,7.66,9.82c-2.02,0.66-5.57-3.97-16.88-11.22
		c-10.79-6.92-12.61-5.07-12.61-5.07L240.8,80.26z"/>
	<path class="st4" d="M230.16,123.33c0,0,13.34-1.69,19.98-0.32c6.64,1.37,12.92,2.71,10.98,4.79c-1.5,1.61-6.62-0.68-19.74-1.34
		c-12.51-0.63-13.33,1.92-13.33,1.92L230.16,123.33z"/>
	<path class="st4" d="M257.73,174c0,0,7.34-12.25,12.55-16.94c5.21-4.69,10.18-9.09,10.4-6.13c0.17,2.29-4.72,5.11-13.57,15.67
		c-8.45,10.07-7.17,12.39-7.17,12.39L257.73,174z"/>
	<path class="st4" d="M316.6,176.22c0,0-8.3-8.93-10.98-14.27c-2.68-5.35-5.18-10.43-2.76-9.88c1.87,0.43,3.12,5.05,9.75,14.78
		c6.32,9.28,8.45,8.82,8.45,8.82L316.6,176.22z"/>
	<path class="st4" d="M426,75.02c0,0-12.89,15.36-21.11,20.19c-8.22,4.83-18.61,11.21-18.7,5.91c-0.04-2.19,9.89-4.24,22.6-17.51
		c12.71-13.27,13.36-15.13,13.36-15.13L426,75.02z"/>
	<path class="st4" d="M378.24,27.44c0,0-6.89,17.25-11.65,23.7s-10.71,14.83-12.09,10.57c-0.57-1.76,6.12-6.49,12.05-21.15
		s5.94-16.37,5.94-16.37L378.24,27.44z"/>
	<path class="st4" d="M314.01,3.73c0,0-2.67,18.58-5.78,26.14s-6.93,17.3-9.25,13.56c-0.96-1.54,4.41-7.96,6.75-23.79
		c2.34-15.82,1.95-17.47,1.95-17.47L314.01,3.73z"/>
	<path class="st4" d="M244.71,5.22c0,0,7.02,17.18,8.17,25.37s2.8,18.63-1.01,16.86c-1.57-0.73-0.26-9.3-6.18-23.97
		s-7.07-15.83-7.07-15.83L244.71,5.22z"/>
	<path class="st4" d="M198.86,41.12c0,0,15.65,7.92,21.46,13.27c5.8,5.35,13.35,12.03,9.41,13.43c-1.63,0.58-5.8-6.82-19.11-13.64
		s-14.87-6.87-14.87-6.87L198.86,41.12z"/>
	<path class="st4" d="M179.1,90.81c0,0,16.9,3.8,23.68,7.56s15.52,8.38,11.98,10.72c-1.46,0.97-7.08-5.19-21.48-8.5
		s-15.92-2.97-15.92-2.97L179.1,90.81z"/>
	<path class="st4" d="M173.43,149.42c0,0,17.03-3.04,24.59-2.17c7.56,0.87,17.25,1.77,14.71,5.34c-1.05,1.47-8.32-2.08-22.85,0.43
		s-15.84,3.44-15.84,3.44L173.43,149.42z"/>
	<g>
		<path class="st5" d="M329.38,248.82l-4.22-3.66c0.57-0.66,57.02-66.4,52.12-115.16c-2.94-29.27-40.98-65.08-65.52-68.21
			c-33.64-4.3-62.61,6.96-71.18,20.32c-8.85,13.8-13.74,52.23-2.85,71.74c11.17,20.01,37.99,30.78,56.03,28.3
			c21.88-3.01,33.29-14.79,34.88-36.02c1.05-13.97-7.22-24.51-14.62-29.29c-5.66-3.66-11.56-4.62-15.41-2.53
			c-3.21,1.75-5.08,4.02-5.69,6.94c-1.32,6.28,3.53,14.3,5.51,16.86l-4.42,3.42c-0.36-0.46-8.67-11.37-6.56-21.43
			c0.96-4.56,3.81-8.16,8.49-10.7c5.73-3.12,13.62-2.1,21.11,2.74c8.69,5.61,18.39,17.99,17.16,34.4
			c-1.8,23.92-15.15,37.76-39.69,41.14c-1.89,0.26-3.87,0.39-5.91,0.39c-19.42,0-44.65-11.6-55.76-31.5
			c-11.99-21.47-6.75-62.24,3.02-77.48c9.38-14.62,39.41-27.6,76.59-22.85c29.23,3.73,67.38,43.41,70.38,73.2
			C387.98,180.6,331.77,246.06,329.38,248.82z"/>
	</g>
</g>
<path class="st6" d="M309.47,246.99c-140.7-46.81-252.78-30.48-248.4,6.8s32.72,68.74,85.34,55.77
	c52.62-12.97,144.42-26.75,144.42-26.75L309.47,246.99z"/>
<path class="st0" d="M510.38,303c-16.36-6.32-29.99-7.35-42.97-19.05c-24.9-22.44-29.65-49.88-29.65-49.88
	c-2.4-0.87-4.81-1.66-7.24-2.36c0,0-11.48,1.27-34.06,4.79c-12.72,1.98-63.91,1.81-63.91,1.81c-18.53,1.31-36.43,9.95-52.68,15.97
	C102.32,320,26.56,368.3,1.57,478.54C-13.7,545.91,85.2,664.8,181.83,646.35c133.81-25.55,255.93-136.02,306.3-214.82
	c12.23-19.14,24.77-44.7,28.61-72.35c28.54,14.29,69.79,35.51,97.65,52.27c46.43,27.95,88.31,8.21,98.01-28.05
	C723.15,343.2,643.56,305.73,510.38,303z"/>
<ellipse class="st7" cx="383.41" cy="358.24" rx="43.23" ry="53.22"/>
<circle class="st7" cx="296.07" cy="343.2" r="40.2"/>
<ellipse class="st8" cx="57.13" cy="498.25" rx="18.14" ry="29.14"/>
<ellipse class="st8" cx="108.59" cy="498.25" rx="18.14" ry="29.14"/>
<ellipse class="st9" cx="370.8" cy="378.04" rx="12.61" ry="19.8"/>
<ellipse class="st9" cx="296.86" cy="358.24" rx="12.61" ry="19.8"/>
<path class="st7" d="M258.96,527.4c0,0-3.16,43.65-10.76,63.92c-7.6,20.27-26.56,44.9-26.56,44.9s16.35-5.81,21.76-7.84
	c3.91-1.47,15.57-6.08,15.57-6.08s45.9-51.26,50.51-71.53C314.09,530.5,258.96,527.4,258.96,527.4z"/>
<path class="st10" d="M527.85,336.99c0,0,16.19-2.69,37.78,1.43c30.72,5.86,67.93,21.57,73.22,31.28
	c8.58,15.78-1.85,31.33-22.81,19.74C595.08,377.86,527.85,336.99,527.85,336.99z"/>
<path class="st10" d="M261.48,261.15c0,0-123.7-15.17-124.76,3.23s35.95,20.74,46,19.57c10.05-1.17,42.6-8.69,42.6-8.69
	L261.48,261.15z"/>
<path class="st8" d="M256.64,550.08c0,0,16.05,4.91,24.29,9.35c8.24,4.43,17.87,12.34,17.87,12.34l-1.01,1.51
	c0,0-7.54-7.96-17.94-12.79c-10.68-4.96-23.42-8.81-23.42-8.81L256.64,550.08z"/>
<path class="st8" d="M253.4,571.18c0,0,12.75,4.72,16.55,7.26c3.8,2.53,15.14,12.36,15.14,12.36l-1.01,1.3c0,0-9.9-9.65-15.82-12.82
	c-5.91-3.17-15.27-6-15.27-6L253.4,571.18z"/>
<path class="st8" d="M247.9,592.1c0,0,8.33,4.71,11.92,7.24c3.59,2.53,10.85,9.36,10.85,9.36l-0.78,0.93c0,0-10.49-8.81-14.29-11.13
	c-3.8-2.32-8.18-5.17-8.18-5.17L247.9,592.1z"/>
<path class="st8" d="M241.63,605.43c0,0,7.91,5.31,11.36,8.06c3.45,2.75,7.64,6.92,7.64,6.92l-0.45,0.51c0,0-6.22-5.53-9.05-7.49
	c-2.83-1.95-9.97-7.14-9.97-7.14L241.63,605.43z"/>
<path class="st2" d="M983.49,315.21c0,0,26.51-14.72,40.34-4.26c13.83,10.45,9.75,33.09,9.75,33.09s17.5-2.84,29.79,15.29
	c12.29,18.14-8.88,39.99-8.88,39.99s6.39-18.86,0-29.86c-6.39-11-30.67-16.2-30.67-16.2s2.68-30.91-9.8-33.76
	C1001.54,316.65,983.49,315.21,983.49,315.21z"/>
<path class="st2" d="M1170.13,320.19c0,0,26.51-14.72,40.34-4.26s9.75,33.09,9.75,33.09s17.5-2.84,29.79,15.29
	c12.29,18.14-8.88,39.99-8.88,39.99s6.39-18.86,0-29.86s-30.67-16.2-30.67-16.2s2.68-30.91-9.8-33.76S1170.13,320.19,1170.13,320.19
	z"/>
<path class="st2" d="M760.06,444.06c0,0,21.43-21.45,37.61-15.21c16.17,6.24,18.49,29.12,18.49,29.12s16.04-7.56,32.85,6.49
	c16.81,14.05,2.48,40.89,2.48,40.89s0.95-19.89-8.22-28.71s-33.95-7.13-33.95-7.13s-5.94-30.45-18.72-29.76
	S760.06,444.06,760.06,444.06z"/>
<path class="st2" d="M997.76,521.71c0,0,21.43-21.45,37.61-15.21c16.17,6.24,18.49,29.12,18.49,29.12s16.04-7.56,32.85,6.49
	c16.81,14.05,2.48,40.89,2.48,40.89s0.95-19.89-8.22-28.71c-9.17-8.82-33.95-7.13-33.95-7.13s-5.94-30.45-18.72-29.76
	S997.76,521.71,997.76,521.71z"/>
<path class="st2" d="M882.99,144.56c0,0,13.98-26.91,31.28-25.83c17.3,1.08,26.4,22.2,26.4,22.2s13.02-12.04,33.29-3.7
	c20.26,8.34,14.68,38.25,14.68,38.25s-5.09-19.25-16.49-24.9c-11.4-5.65-34.52,3.42-34.52,3.42s-14.83-27.25-26.81-22.74
	C898.83,135.79,882.99,144.56,882.99,144.56z"/>
</svg>
