<?xml version="1.0" encoding="utf-8"?>
<!-- Generator: Adobe Illustrator 23.0.5, SVG Export Plug-In . SVG Version: 6.00 Build 0)  -->
<svg version="1.1" xmlns="http://www.w3.org/2000/svg" xmlns:xlink="http://www.w3.org/1999/xlink" x="0px" y="0px"
	 viewBox="0 0 1149.15 963.58" style="enable-background:new 0 0 1149.15 963.58;" xml:space="preserve">
<style type="text/css">
	.st0{opacity:0.13;fill:#3A3A3A;}
	.st1{fill:#3D3C3C;}
	.st2{fill:#FEE3AE;}
	.st3{fill:#DEC38E;}
	.st4{fill:#2F2F31;}
	.st5{fill:#FFFFFF;}
	.st6{fill:#201600;}
	.st7{fill:#2E2E30;}
	.st8{fill:#CC8989;}
</style>
<g id="Layer_2">
	<ellipse class="st0" cx="449.68" cy="880.41" rx="442.19" ry="83.17"/>
</g>
<g id="Layer_3">
</g>
<g id="Layer_1">
	<path class="st1" d="M715.83,560.41c2.36,48.61-5.07,133.89-7.18,169.56c-2.11,35.68-5.05,197.08-5.05,197.08l-30.58-38.71
		l-29.95,43.1c0,0-2.63-73.9-4.01-138.12s-7.29-186.53-7.29-186.53L715.83,560.41z"/>
	<path class="st1" d="M812.74,507.44c2.36,48.61,2.11,211.49,0,247.17c-2.11,35.68-5.88,123.77-5.88,123.77l-31.55-28.3l-27.8,28.3
		c0,0-2.38-68.23-3.76-132.45s-7.54-192.2-7.54-192.2L812.74,507.44z"/>
	<path class="st1" d="M195.72,550.93c2.36,48.61,2.87,214.06,0.77,249.73c-2.11,35.68-0.77,121.3-0.77,121.3l-37.32-35.88
		l-35.45,35.88c0,0,5.67-53.51,4.29-117.73c-1.38-64.22,10.88-340.36,10.88-340.36L195.72,550.93z"/>
	<path class="st1" d="M303.79,507.44c2.36,48.61,10.41,213.96,8.3,249.64c-2.11,35.68-0.77,121.3-0.77,121.3l-37.27-36.12
		l-35.49,36.12c0,0,5.67-53.51,4.29-117.73S260,533.93,260,533.93L303.79,507.44z"/>
	<path class="st2" d="M36.05,418.33c-2.44,16.45-2.77,36.53,6.06,49.76c25.23,37.75,68.97,31.74,68.97,31.74s-10.76,38.95,4.7,65.14
		c15.09,25.57,79.14,27.83,79.14,27.83s3.47,58.64,27.2,62.29c15.91,2.44,51.39-22.11,54.99-21.79c0.41,1.11,3.43,6.63,17.66,29.51
		c21.61,34.69,66.01,10.02,66.01,10.02s17.98,19.68,35.58,31.47c17.59,11.8,45.77-2.82,45.77-2.82s-0.54-1.6,32.06,8.59
		c32.24,10.08,41.66-29.97,41.88-30.86c0.26,0.96,11.34,40.66,40.89,21.01c29.92-19.9,32.59-47.52,32.59-47.52
		s19.05,14.76,49.41,9.43c30.35-5.33,23.68-40.84,23.68-40.84s34.26,11.26,55.79,2.69c21.53-8.56,27.82-42.96,27.82-42.96
		s19.94,28.47,38.28,11.28c18.36-17.2,0.51-33.25,0.51-33.25s70.22-8.99,76.47-23.6c28.73-67.18,5.85-108.28,5.85-108.28
		c0-0.02-10.25-41.76-21.74-88.65C830.85,278.38,814,209.75,814,209.75s-17.91-43.52-37.2-54.02c-19.3-10.5-41.86-2.73-41.86-2.73
		s-25.73-40.04-42.91-51.14c-17.17-11.1-38.28,2.77-38.28,2.77s-11.2-23.41-17.37-29.43c-6.16-6.01-41.75-0.17-41.75-0.17
		s1.5-34.89-29.29-49.63c-30.81-14.76-55.72,14.88-55.72,14.88S475.28,15.79,457.11,8.8c-18.17-6.99-17.23,12.73-17.23,12.73
		S407.23-2.36,384.82,0.19c-22.41,2.55-26.49,28.6-26.49,28.6s-38.98-18.91-53.45-13.67c-14.3,5.19-8.06,32.9-7.92,33.56
		c-0.51-0.48-19.76-18.56-47.56-12.02c-1.46,0.35-2.94,0.77-4.46,1.25c-30.57,9.86-22.04,56.23-22.04,56.23s-26.94-13.1-46.23-9.77
		c-19.3,3.33-33.53,44.89-33.53,44.89s-10.89-10.69-37.04,2.86c-26.15,13.54-20.13,49.1-20.13,49.1s-13.08-11.49-37.15,6.31
		c-11.52,8.51,0.21,64.83,0.21,64.83s-47.4,34.41-48.98,54.98c-1.72,22.46,42.54,82.92,42.54,82.92S38.37,402.65,36.05,418.33z"/>
	<path class="st3" d="M42.12,468.09c25.23,37.75,68.97,31.74,68.97,31.74s-10.76,38.95,4.7,65.14
		c15.09,25.57,79.14,27.83,79.14,27.83s3.47,58.64,27.2,62.29c15.91,2.44,51.39-22.11,54.99-21.79c0.41,1.11,3.43,6.63,17.66,29.51
		c21.61,34.69,66.01,10.02,66.01,10.02s17.98,19.68,35.58,31.47c17.59,11.8,45.77-2.82,45.77-2.82s-0.54-1.6,32.06,8.59
		c32.24,10.08,41.66-29.97,41.88-30.86c0.26,0.96,11.34,40.66,40.89,21.01c29.92-19.9,32.59-47.52,32.59-47.52
		s19.05,14.76,49.41,9.43c30.35-5.33,23.68-40.84,23.68-40.84s34.26,11.26,55.79,2.69c21.53-8.56,27.82-42.96,27.82-42.96
		s19.94,28.47,38.28,11.28c18.36-17.2,0.51-33.25,0.51-33.25s70.22-8.99,76.47-23.6c28.73-67.18,5.85-108.28,5.85-108.28
		c0-0.02-10.25-41.76-21.74-88.65l-113.46-85.45l-160.3,56.38c0,0-18.02,15.64,14.21,26.29c32.24,10.64,116.35-46,116.35-46
		c7.61,56.63,103.36,143.44,90.89,189.78c-12.47,46.34-50.86,54.41-50.86,54.41s1.46,15.29-18.71,26.49
		c-20.15,11.19-48.91,12.95-48.91,12.95s-31.68,47.51-52.96,47.51c-21.28,0-51.74-7.04-51.74-7.04s-39.48,35.2-58.43,29.91
		c-18.93-5.28-58.92-22.88-58.92-22.88s-26.46,14.08-53.59,14.08c-27.12,0-42.7-24.63-42.7-24.63s-21.7,21.12-40.07,10.55
		C298.07,610.32,281,590.96,281,590.96s-32.81,21.12-45.69,5.28c-12.88-15.83-20.92-35.83-20.92-35.83s-46.85,13.44-54,0
		c-7.15-13.44-10.37-45.8-10.37-45.8s-20.31-8.32-27.06-26.68c-6.59-17.99-0.27-27.75-0.01-28.15c-0.77,0.25-32.74,10.7-55-10.75
		c-10.68-10.3-22.47-21.63-31.9-30.7C33.61,434.78,33.28,454.86,42.12,468.09z"/>
	<path class="st4" d="M887.12,168.41c119.13-43.34,214.03-28.22,210.32,6.3c-3.71,34.51-27.7,63.64-72.26,51.64
		c-44.55-12.01-122.28-24.76-122.28-24.76L887.12,168.41z"/>
	<path class="st1" d="M717.02,220.26c13.85-5.85,28.98-78.44,95.69-78.44c48.42,0,85.73,27.75,99.49,33.32
		c150.32,60.86,214.47,105.58,235.63,207.64c12.93,62.38-70.81,172.45-152.62,155.37C881.9,514.5,778.51,412.22,735.86,339.26
		c-10.36-17.72-20.97-41.38-24.22-66.98c-24.17,13.23-59.09,32.87-82.68,48.4c-39.31,25.87-74.77,7.6-82.99-25.97
		C536.86,257.49,604.25,222.79,717.02,220.26z"/>
	<ellipse class="st5" cx="824.52" cy="271.41" rx="36.6" ry="49.27"/>
	<ellipse class="st5" cx="898.48" cy="257.49" rx="34.04" ry="37.22"/>
	<ellipse class="st6" cx="1100.78" cy="401.04" rx="15.36" ry="26.98"/>
	<ellipse class="st6" cx="1057.21" cy="401.04" rx="15.36" ry="26.98"/>
	<ellipse class="st7" cx="835.2" cy="289.74" rx="10.68" ry="18.33"/>
	<ellipse class="st7" cx="897.8" cy="271.41" rx="10.68" ry="18.33"/>
	<path class="st5" d="M929.89,428.02c0,0,2.67,40.41,9.11,59.18s22.49,41.57,22.49,41.57s-13.84-5.38-18.42-7.26
		c-3.31-1.36-13.18-5.63-13.18-5.63s-38.86-47.45-42.77-66.22C883.21,430.89,929.89,428.02,929.89,428.02z"/>
	<path class="st8" d="M702.22,251.74c0,0-13.71-2.49-31.99,1.32c-26.01,5.42-57.52,19.97-61.99,28.96
		c-7.26,14.61,1.57,29,19.31,18.28C645.3,289.58,702.22,251.74,702.22,251.74z"/>
	<path class="st8" d="M927.76,181.52c0,0,104.74-14.04,105.63,2.99c0.9,17.04-30.44,19.2-38.95,18.12
		c-8.51-1.08-36.07-8.05-36.07-8.05L927.76,181.52z"/>
	<path class="st6" d="M931.85,449.02c0,0-13.59,4.55-20.57,8.65c-6.97,4.11-15.13,11.42-15.13,11.42l0.85,1.4
		c0,0,6.38-7.37,15.19-11.85c9.04-4.59,19.83-8.16,19.83-8.16L931.85,449.02z"/>
	<path class="st6" d="M934.6,468.55c0,0-10.8,4.37-14.02,6.72c-3.22,2.35-12.82,11.44-12.82,11.44l0.85,1.21
		c0,0,8.38-8.93,13.39-11.87c5.01-2.93,12.93-5.56,12.93-5.56L934.6,468.55z"/>
	<path class="st6" d="M939.26,487.92c0,0-7.05,4.36-10.09,6.71s-9.19,8.66-9.19,8.66l0.66,0.86c0,0,8.88-8.16,12.1-10.31
		c3.22-2.15,6.92-4.79,6.92-4.79L939.26,487.92z"/>
	<path class="st6" d="M944.56,500.27c0,0-6.7,4.92-9.62,7.46s-6.47,6.41-6.47,6.41l0.38,0.48c0,0,5.27-5.12,7.66-6.93
		c2.39-1.81,8.44-6.61,8.44-6.61L944.56,500.27z"/>
	<path class="st3" d="M316.44,231.58c0,0-22.45-13.63-34.16-3.95c-11.71,9.68-8.26,30.64-8.26,30.64s-14.82-2.63-25.23,14.16
		c-10.41,16.79,7.52,37.03,7.52,37.03s-5.41-17.46,0-27.65c5.41-10.19,25.97-15,25.97-15s-2.27-28.62,8.3-31.26
		C301.15,232.91,316.44,231.58,316.44,231.58z"/>
	<path class="st3" d="M158.41,236.18c0,0-22.45-13.63-34.16-3.95c-11.71,9.68-8.26,30.64-8.26,30.64s-14.82-2.63-25.23,14.16
		c-10.41,16.79,7.52,37.03,7.52,37.03s-5.41-17.46,0-27.65c5.41-10.19,25.97-15,25.97-15s-2.27-28.62,8.3-31.26
		C143.12,237.51,158.41,236.18,158.41,236.18z"/>
	<path class="st3" d="M505.61,350.87c0,0-18.15-19.86-31.84-14.08c-13.69,5.78-15.66,26.96-15.66,26.96s-13.58-6.99-27.82,6.01
		s-2.1,37.86-2.1,37.86s-0.8-18.41,6.96-26.58c7.77-8.16,28.74-6.6,28.74-6.6s5.03-28.19,15.85-27.55S505.61,350.87,505.61,350.87z"
		/>
	<path class="st3" d="M304.35,422.76c0,0-18.15-19.86-31.84-14.08s-15.66,26.96-15.66,26.96s-13.58-6.99-27.82,6.01
		c-14.23,13.01-2.1,37.86-2.1,37.86s-0.8-18.41,6.96-26.58c7.77-8.16,28.74-6.6,28.74-6.6s5.03-28.19,15.85-27.55
		S304.35,422.76,304.35,422.76z"/>
	<path class="st3" d="M401.53,73.58c0,0-11.84-24.91-26.48-23.91c-14.65,1-22.36,20.56-22.36,20.56s-11.03-11.14-28.18-3.43
		s-12.43,35.41-12.43,35.41s4.31-17.82,13.96-23.05c9.65-5.23,29.23,3.17,29.23,3.17s12.56-25.23,22.7-21.05
		C388.11,65.46,401.53,73.58,401.53,73.58z"/>
	<path class="st3" d="M905.07,94.75c0,0,37.64-0.62,32.32,18.38c-5.32,19-30,22.24-30,22.24s26.29-2.34,15.61,15.94
		c-10.68,18.28-52.97,15.03-52.97,15.03s29.2,16.13,0,25.17s-41.75-5.36-41.75-5.36s1.15,23.31-23.56,19.8
		c-24.71-3.5-30.41-17.63-30.41-17.63s-5.16,34.05-29.19,24.09c-24.03-9.96-10.72-37.48-10.72-37.48s-23.73,1.19-23.27-12.25
		c0.46-13.44,33.99-22,33.99-22s-12.08-15.97,0-29.37c12.08-13.39,51.7,17.02,51.7,17.02s-24.42-35.92,7.89-36.02
		c32.31-0.1,45.35,27.66,45.35,27.66s-14.9-43.4,5.99-38.43c20.89,4.97,23.14,29.77,23.14,29.77S892.62,93.82,905.07,94.75z"/>
</g>
</svg>
